<?xml version="1.0" encoding="UTF-8" standalone="no"?>
<!DOCTYPE svg PUBLIC "-//W3C//DTD SVG 1.1//EN" "http://www.w3.org/Graphics/SVG/1.1/DTD/svg11.dtd">
<svg width="100%" height="100%" viewBox="0 0 512 512" version="1.1" xmlns="http://www.w3.org/2000/svg" xmlns:xlink="http://www.w3.org/1999/xlink" xml:space="preserve" xmlns:serif="http://www.serif.com/" style="fill-rule:evenodd;clip-rule:evenodd;stroke-linejoin:round;stroke-miterlimit:2;">
    <path d="M224.113,303.961L307.387,256L224.113,208.039L224.113,303.961Z" style="fill:rgb(248,131,112);fill-rule:nonzero;"/>
    <path d="M256,0C114.637,0 0,114.637 0,256C0,397.363 114.637,512 256,512C397.363,512 512,397.363 512,256C512,114.637 397.363,0 256,0ZM415.961,256.262C415.961,256.262 415.961,308.18 409.375,333.215C405.684,346.918 394.879,357.723 381.176,361.41C356.141,368 256,368 256,368C256,368 156.121,368 130.824,361.148C117.121,357.461 106.316,346.652 102.625,332.949C96.035,308.18 96.035,256 96.035,256C96.035,256 96.035,204.086 102.625,179.051C106.313,165.348 117.383,154.277 130.824,150.59C155.859,144 256,144 256,144C256,144 356.141,144 381.176,150.852C394.879,154.539 405.684,165.348 409.375,179.051C416.227,204.086 415.961,256.262 415.961,256.262Z" style="fill:rgb(248,131,112);fill-rule:nonzero;"/>
</svg>
