<?xml version="1.0" encoding="UTF-8" standalone="no"?>
<!DOCTYPE svg PUBLIC "-//W3C//DTD SVG 1.1//EN" "http://www.w3.org/Graphics/SVG/1.1/DTD/svg11.dtd">
<svg width="100%" height="100%" viewBox="0 0 309 163" version="1.1" xmlns="http://www.w3.org/2000/svg" xmlns:xlink="http://www.w3.org/1999/xlink" xml:space="preserve" xmlns:serif="http://www.serif.com/" style="fill-rule:evenodd;clip-rule:evenodd;stroke-linejoin:round;stroke-miterlimit:2;">
    <g transform="matrix(1,0,0,1,-154.599,-233.859)">
        <g>
            <path d="M380.604,336.679C380.604,336.679 380.974,337.187 381.697,338.179C382.066,338.666 382.604,339.212 383.198,339.893C383.874,340.494 384.601,341.259 385.583,341.934C387.482,343.346 390.122,344.765 393.49,345.516C395.182,345.818 397.029,346.046 398.999,345.901C400.962,345.752 403.03,345.334 405.089,344.534C409.153,342.871 413.196,339.652 416.065,335.153C418.983,330.694 420.504,324.75 419.7,318.646C419.295,315.603 418.288,312.538 416.656,309.714C414.977,306.917 412.856,304.179 410.181,301.947C407.525,299.7 404.418,297.842 400.992,296.57C397.57,295.296 393.83,294.611 390.013,294.658C386.198,294.701 382.31,295.482 378.656,297.038C377.757,297.459 376.815,297.798 375.966,298.343C375.102,298.859 374.203,299.297 373.366,299.91C371.661,301.057 370.027,302.344 368.516,303.79C362.412,309.496 358.121,317.599 356.997,326.475C355.854,335.335 357.964,344.852 363.444,352.635C368.829,360.552 376.853,366.995 386.341,370.366C391.058,372.101 396.123,373.017 401.247,373.166C406.377,373.291 411.57,372.548 416.555,370.979C419.041,370.175 421.473,369.161 423.819,367.951C424.398,367.635 424.996,367.354 425.562,367.009L427.271,365.992L428.955,364.872L429.8,364.312L430.615,363.709L432.249,362.501L433.821,361.209L434.607,360.561L435.361,359.873C435.862,359.412 436.374,358.964 436.867,358.493C438.816,356.585 440.671,354.566 442.371,352.404C449.167,343.762 453.583,333.006 454.707,321.711C455.871,310.428 453.688,298.66 448.245,288.362C447.605,287.055 446.817,285.83 446.095,284.57C445.275,283.35 444.509,282.094 443.654,280.904L442.358,279.131C442.14,278.837 441.932,278.536 441.707,278.247L441.017,277.396L439.639,275.695C439.181,275.128 438.673,274.604 438.194,274.058C434.305,269.73 429.975,265.836 425.238,262.586C420.516,259.318 415.458,256.607 410.206,254.492C404.945,252.397 399.485,250.932 393.983,250.055C382.971,248.266 371.782,249.103 361.466,252.066C356.304,253.552 351.354,255.581 346.712,258.072C345.557,258.704 344.429,259.379 343.288,260.025C342.18,260.716 341.078,261.395 340.01,262.146C337.856,263.61 335.775,265.193 333.759,266.853C325.684,273.493 318.527,281.071 311.675,288.526C304.834,296.01 298.323,303.47 291.876,310.575C279.024,324.813 266.335,337.636 253.419,347.819C246.985,352.928 240.512,357.377 234.117,361.122C230.918,362.99 227.749,364.705 224.601,366.213C221.47,367.755 218.355,369.075 215.32,370.275C203.127,375.01 191.964,377.056 182.857,377.758C181.717,377.854 180.61,377.943 179.531,377.977C178.452,378.02 177.408,378.082 176.396,378.104C174.37,378.111 172.478,378.169 170.721,378.089C169.843,378.064 168.999,378.04 168.189,378.018C167.381,377.967 166.607,377.919 165.866,377.873C165.128,377.825 164.423,377.78 163.754,377.737C163.086,377.672 162.454,377.609 161.857,377.551C160.663,377.424 159.611,377.342 158.708,377.219C157.806,377.096 157.048,376.993 156.44,376.91C155.223,376.744 154.6,376.659 154.6,376.659C154.6,376.659 155.227,376.714 156.449,376.822C157.061,376.877 157.822,376.944 158.727,377.024C159.632,377.105 160.688,377.14 161.882,377.213C162.479,377.244 163.112,377.277 163.779,377.313C164.448,377.327 165.151,377.341 165.889,377.355C166.626,377.369 167.398,377.384 168.204,377.398C169.01,377.387 169.85,377.374 170.723,377.36C172.47,377.365 174.347,377.229 176.353,377.138C177.356,377.073 178.388,376.969 179.452,376.882C180.518,376.806 181.611,376.673 182.734,376.53C191.71,375.471 202.607,373.024 214.373,367.964C217.303,366.682 220.304,365.284 223.315,363.671C226.341,362.091 229.382,360.31 232.449,358.379C238.58,354.511 244.77,349.96 250.924,344.763C263.278,334.399 275.405,321.459 287.835,307.001C294.073,299.783 300.406,292.187 307.16,284.48C313.936,276.801 321.068,268.923 329.498,261.735C331.604,259.941 333.805,258.205 336.127,256.569C337.273,255.737 338.483,254.96 339.687,254.186C340.915,253.459 342.135,252.706 343.386,251.999C348.408,249.202 353.793,246.902 359.431,245.197C370.697,241.794 382.99,240.735 395.123,242.588C401.187,243.496 407.214,245.063 413.031,247.332C418.839,249.621 424.442,252.58 429.677,256.168C434.928,259.737 439.738,264.024 444.05,268.8C444.582,269.403 445.142,269.984 445.652,270.609L447.179,272.485L447.943,273.426C448.191,273.744 448.423,274.075 448.664,274.399L450.098,276.357C451.043,277.672 451.894,279.054 452.796,280.403C453.618,281.822 454.503,283.214 455.233,284.693C456.791,287.599 458.074,290.639 459.158,293.732C460.267,296.819 461.071,300 461.688,303.196C462.323,306.394 462.646,309.634 462.787,312.863C462.945,316.095 462.795,319.323 462.47,322.514C461.136,335.29 456.054,347.411 448.289,357.098C446.348,359.521 444.233,361.78 442.014,363.905C441.452,364.431 440.871,364.932 440.301,365.444L439.443,366.207L438.551,366.929L436.765,368.361L434.915,369.7L433.99,370.365L433.036,370.984L431.13,372.218L429.145,373.368C428.487,373.755 427.792,374.077 427.118,374.433C424.393,375.797 421.568,376.931 418.684,377.82C412.904,379.558 406.907,380.321 401.025,380.087C395.147,379.829 389.374,378.677 384.024,376.609C381.348,375.585 378.763,374.372 376.312,372.96C373.867,371.536 371.552,369.937 369.381,368.188C365.058,364.667 361.345,360.529 358.404,356.003C355.379,351.501 353.256,346.398 352.142,341.232C351.019,336.053 350.893,330.768 351.655,325.724C353.183,315.615 358.314,306.567 365.351,300.34C367.093,298.763 368.964,297.37 370.904,296.145C371.845,295.498 372.906,294.999 373.908,294.445C374.9,293.859 375.988,293.486 377.031,293.04C381.262,291.382 385.717,290.629 390.029,290.712C394.345,290.791 398.517,291.694 402.294,293.238C406.075,294.78 409.458,296.962 412.31,299.545C412.993,300.221 413.673,300.893 414.347,301.559C414.967,302.274 415.556,303.008 416.152,303.724L416.592,304.263L416.98,304.84C417.237,305.224 417.492,305.605 417.747,305.986C418,306.367 418.253,306.747 418.504,307.126C418.721,307.531 418.936,307.935 419.15,308.336C420.862,311.549 421.857,314.993 422.181,318.363C422.511,321.736 422.183,325.03 421.365,328.048C421.128,328.793 420.936,329.545 420.665,330.261C420.373,330.969 420.084,331.669 419.798,332.362C419.448,333.025 419.102,333.681 418.759,334.33C418.418,334.979 417.973,335.559 417.591,336.164C417.218,336.777 416.755,337.316 416.313,337.859C415.872,338.404 415.446,338.949 414.944,339.417C414.456,339.896 413.998,340.395 413.502,340.839C412.987,341.263 412.479,341.681 411.976,342.094L411.6,342.401L411.198,342.671C410.932,342.848 410.666,343.024 410.403,343.2C409.87,343.543 409.373,343.921 408.808,344.188C408.255,344.468 407.73,344.785 407.175,345.021C406.616,345.247 406.066,345.47 405.522,345.689C403.301,346.45 401.103,346.799 399.041,346.868C396.972,346.932 395.059,346.614 393.323,346.225C389.87,345.298 387.24,343.722 385.375,342.201C384.41,341.472 383.708,340.663 383.056,340.026C382.486,339.311 381.974,338.739 381.626,338.231C380.949,337.205 380.604,336.679 380.604,336.679Z" style="fill:url(#_Linear1);"/>
            <path d="M239.081,273.673C239.081,273.673 239.279,273.907 239.662,274.362C239.85,274.595 240.107,274.867 240.369,275.225C240.62,275.593 240.91,276.02 241.24,276.504C241.547,277.003 241.84,277.592 242.194,278.23C242.334,278.566 242.482,278.918 242.636,279.285C242.796,279.651 242.953,280.037 243.066,280.456C243.637,282.095 243.99,284.104 243.981,286.386C243.962,288.663 243.523,291.23 242.398,293.824C241.304,296.421 239.397,298.994 236.818,301.081C234.276,303.186 231.067,304.922 227.372,305.866C223.682,306.79 219.516,306.853 215.349,305.83C211.218,304.734 207.056,302.544 203.766,299.102C202.098,297.412 200.708,295.5 199.418,293.419C199.093,292.903 198.844,292.342 198.552,291.799C198.283,291.245 197.96,290.711 197.736,290.131C197.507,289.551 197.278,288.969 197.046,288.384C196.937,288.09 196.808,287.8 196.713,287.499L196.451,286.585C196.279,285.974 196.106,285.358 195.932,284.741C195.815,284.11 195.698,283.477 195.58,282.841L195.41,281.882C195.353,281.561 195.346,281.234 195.312,280.909C195.259,280.258 195.206,279.603 195.153,278.945C195.113,276.315 195.228,273.605 195.875,270.944C196.103,269.592 196.597,268.298 196.997,266.966C197.239,266.314 197.53,265.679 197.798,265.03L198.213,264.062C198.365,263.744 198.544,263.439 198.709,263.127C199.05,262.507 199.391,261.884 199.734,261.26C200.135,260.67 200.537,260.078 200.942,259.485C201.147,259.191 201.344,258.89 201.559,258.601L202.254,257.771C202.723,257.221 203.181,256.654 203.67,256.117C204.193,255.61 204.717,255.102 205.242,254.592C205.51,254.344 205.765,254.071 206.044,253.843L206.892,253.171C207.46,252.725 208.031,252.276 208.602,251.827L209.032,251.49C209.182,251.386 209.338,251.292 209.49,251.192L210.416,250.603C211.036,250.211 211.658,249.817 212.281,249.424C212.929,249.071 213.598,248.752 214.26,248.415L215.259,247.917C215.592,247.749 215.925,247.58 216.279,247.458C216.977,247.191 217.677,246.924 218.379,246.655L219.437,246.256L220.528,245.955C221.258,245.757 221.99,245.559 222.725,245.359C223.458,245.157 224.22,245.079 224.971,244.936C225.726,244.822 226.478,244.649 227.243,244.591C228.011,244.536 228.78,244.481 229.55,244.426C229.936,244.401 230.322,244.368 230.708,244.354L231.871,244.38C232.648,244.401 233.426,244.422 234.206,244.443C234.984,244.497 235.759,244.617 236.538,244.705C238.106,244.839 239.636,245.235 241.184,245.574C241.965,245.718 242.707,246.012 243.468,246.245C244.222,246.501 244.991,246.721 245.735,247.014C246.468,247.335 247.202,247.655 247.939,247.978L249.041,248.468L250.098,249.057C250.801,249.453 251.506,249.851 252.212,250.249C252.899,250.679 253.55,251.167 254.22,251.628C255.591,252.515 256.786,253.633 258.031,254.701C258.672,255.216 259.2,255.846 259.773,256.435C260.334,257.033 260.907,257.629 261.456,258.239C263.547,260.704 265.414,263.417 266.963,266.333C270.079,272.164 271.781,278.656 272.068,285.047C272.371,291.449 271.323,297.723 269.371,303.482C267.416,309.253 264.572,314.531 261.198,319.222C259.51,321.567 257.691,323.773 255.764,325.827C253.931,327.774 252.118,329.699 250.328,331.602C246.711,335.406 243.103,339.102 239.392,342.513C235.689,345.929 231.915,349.082 228.086,351.896C220.426,357.53 212.56,361.751 205.094,364.726C203.24,365.505 201.381,366.136 199.587,366.783C197.769,367.364 196.012,367.967 194.269,368.432C190.808,369.449 187.49,370.176 184.387,370.809C178.17,372.032 172.754,372.602 168.335,372.95C167.231,373.028 166.187,373.103 165.207,373.172C164.226,373.212 163.309,373.25 162.456,373.285C161.606,373.318 160.821,373.349 160.102,373.376C159.383,373.384 158.732,373.392 158.149,373.398C155.824,373.413 154.6,373.421 154.6,373.421C154.6,373.421 155.817,373.296 158.129,373.06C158.706,373 159.353,372.934 160.066,372.859C160.777,372.769 161.554,372.668 162.396,372.56C163.238,372.451 164.143,372.334 165.112,372.209C166.076,372.058 167.103,371.896 168.19,371.726C172.531,371.014 177.823,370.023 183.818,368.377C186.808,367.533 189.991,366.595 193.282,365.377C194.943,364.811 196.606,364.111 198.325,363.437C200.019,362.695 201.771,361.976 203.507,361.112C210.512,357.799 217.762,353.354 224.789,347.625C228.304,344.761 231.765,341.586 235.187,338.146C238.615,334.714 241.978,330.988 245.416,327.104C247.139,325.146 248.883,323.166 250.647,321.162C252.318,319.263 253.885,317.242 255.329,315.113C258.215,310.858 260.601,306.148 262.196,301.125C263.79,296.107 264.581,290.771 264.275,285.448C263.978,280.13 262.559,274.847 259.997,270.044C258.721,267.642 257.183,265.389 255.438,263.311L254.086,261.855C253.629,261.381 253.217,260.858 252.698,260.452C251.701,259.597 250.764,258.673 249.664,257.964C249.129,257.592 248.615,257.188 248.07,256.836C247.506,256.512 246.944,256.188 246.382,255.864L245.543,255.374L244.66,254.975C244.073,254.706 243.487,254.438 242.901,254.171C242.306,253.925 241.686,253.747 241.083,253.529C240.473,253.333 239.882,253.072 239.251,252.955C238.005,252.67 236.777,252.308 235.509,252.188C234.879,252.106 234.254,251.988 233.625,251.933C232.992,251.904 232.362,251.875 231.733,251.847L230.789,251.799C230.475,251.805 230.161,251.829 229.848,251.842C229.221,251.871 228.595,251.9 227.971,251.93C227.346,251.958 226.735,252.096 226.117,252.17C225.505,252.274 224.879,252.31 224.28,252.465C223.678,252.612 223.077,252.759 222.479,252.905L221.579,253.121L220.711,253.429C220.131,253.631 219.553,253.832 218.976,254.033C218.681,254.12 218.406,254.254 218.132,254.386L217.304,254.771C216.755,255.032 216.196,255.272 215.655,255.543C215.133,255.853 214.614,256.161 214.096,256.469L213.316,256.927C213.187,257.004 213.054,257.075 212.928,257.157L212.566,257.426C212.082,257.782 211.599,258.138 211.117,258.492L210.393,259.021C210.156,259.199 209.957,259.407 209.738,259.598C209.306,259.986 208.875,260.372 208.446,260.758C208.045,261.171 207.672,261.608 207.282,262.029L206.701,262.663C206.524,262.886 206.362,263.121 206.191,263.349C205.85,263.807 205.51,264.263 205.172,264.718C204.881,265.205 204.592,265.691 204.304,266.176C204.161,266.419 204.005,266.655 203.872,266.903L203.515,267.666C203.281,268.176 203.022,268.674 202.805,269.188C202.454,270.247 201.99,271.268 201.771,272.354C201.143,274.481 200.968,276.678 200.888,278.831C200.906,279.37 200.926,279.908 200.945,280.443C200.96,280.711 200.947,280.981 200.984,281.245L201.089,282.038C201.158,282.566 201.228,283.093 201.297,283.617C201.416,284.132 201.535,284.646 201.654,285.156L201.828,285.924C201.893,286.178 201.991,286.42 202.07,286.668C202.236,287.163 202.401,287.656 202.564,288.146C202.722,288.642 202.976,289.093 203.173,289.567C203.394,290.03 203.571,290.517 203.822,290.96C204.799,292.736 205.912,294.467 207.198,295.917C209.714,298.879 213.022,300.886 216.434,302.036C219.877,303.109 223.441,303.31 226.694,302.729C229.948,302.128 232.882,300.814 235.298,299.1C237.725,297.415 239.572,295.298 240.749,293.028C241.948,290.771 242.554,288.447 242.748,286.326C242.937,284.202 242.773,282.266 242.365,280.652C242.293,280.239 242.175,279.857 242.052,279.491C241.936,279.123 241.823,278.771 241.717,278.434C241.432,277.788 241.199,277.185 240.944,276.669C240.665,276.163 240.42,275.718 240.208,275.334C239.983,274.957 239.756,274.665 239.592,274.416C239.254,273.925 239.081,273.673 239.081,273.673Z" style="fill:url(#_Linear2);"/>
            <path d="M154.6,376.659C154.6,376.659 155.346,376.889 156.767,377.325C157.123,377.434 157.522,377.556 157.961,377.689C158.404,377.813 158.893,377.93 159.42,378.065C160.476,378.331 161.692,378.661 163.084,378.922C168.619,380.093 176.839,381.177 187.024,380.791C192.111,380.612 197.676,380.092 203.593,379.145C209.509,378.194 215.769,376.792 222.248,374.932C228.729,373.076 235.411,370.696 242.164,367.805C248.905,364.887 255.726,361.456 262.354,357.286C264.615,355.886 266.793,354.381 268.926,352.854C270.993,351.268 273.056,349.714 275.053,348.127C277,346.487 278.958,344.896 280.828,343.26C282.672,341.598 284.521,339.98 286.287,338.333C293.37,331.754 299.713,325.228 305.555,319.243C311.394,313.256 316.731,307.795 321.558,303.097C322.757,301.913 323.955,300.816 325.089,299.73C326.234,298.659 327.307,297.593 328.398,296.644C329.475,295.676 330.505,294.75 331.489,293.868C331.981,293.427 332.462,292.997 332.93,292.578C333.411,292.176 333.879,291.783 334.335,291.402C336.269,290.019 338.362,288.396 340.798,286.838C342.001,286.039 343.255,285.206 344.557,284.341C345.899,283.541 347.289,282.711 348.729,281.853C349.455,281.437 350.161,280.958 350.935,280.571C351.7,280.173 352.478,279.769 353.268,279.357C354.85,278.557 356.45,277.624 358.154,276.922C361.54,275.427 365.271,274.232 369.256,273.438C373.24,272.648 377.479,272.23 381.86,272.326C386.238,272.421 390.752,272.985 395.262,274.077C399.773,275.168 404.252,276.868 408.536,279.115C410.647,280.29 412.759,281.53 414.713,283.02C415.729,283.716 416.643,284.544 417.611,285.314L418.978,286.571L419.662,287.202L420.306,287.876C425.439,293.104 428.967,299.52 430.637,306.221C431.015,307.926 431.456,309.608 431.663,311.306C431.982,312.993 432.064,314.679 432.207,316.346C432.327,319.68 432.119,322.942 431.523,326.057C430.871,329.156 429.831,332.081 428.458,334.74C428.087,335.389 427.781,336.073 427.366,336.683C426.961,337.3 426.558,337.911 426.158,338.519C425.707,339.089 425.26,339.655 424.817,340.216C424.376,340.782 423.852,341.266 423.381,341.79C421.411,343.807 419.225,345.479 416.948,346.802C414.649,348.089 412.269,349.003 409.925,349.616C409.333,349.749 408.748,349.88 408.17,350.009C407.587,350.106 407.005,350.168 406.433,350.249C406.146,350.282 405.862,350.339 405.576,350.352C405.291,350.363 405.008,350.375 404.727,350.387C404.164,350.398 403.607,350.464 403.059,350.432C401.964,350.375 400.891,350.359 399.87,350.17C399.36,350.083 398.843,350.056 398.358,349.925C397.868,349.807 397.387,349.69 396.914,349.576C393.133,348.589 390.14,346.832 387.978,345.093C385.81,343.344 384.346,341.704 383.432,340.544C382.537,339.358 382.068,338.736 382.068,338.736C382.068,338.736 382.485,339.397 383.279,340.656C384.102,341.896 385.442,343.664 387.531,345.619C389.615,347.563 392.588,349.611 396.507,350.914C397,351.066 397.501,351.222 398.01,351.38C398.518,351.55 399.059,351.616 399.596,351.742C400.672,352.009 401.808,352.099 402.978,352.228C403.563,352.296 404.159,352.265 404.764,352.287C405.067,352.291 405.371,352.296 405.679,352.301C405.986,352.304 406.292,352.263 406.603,352.245C407.222,352.194 407.854,352.162 408.489,352.091C409.118,351.986 409.757,351.881 410.404,351.773C412.97,351.253 415.607,350.396 418.186,349.113C420.741,347.795 423.229,346.075 425.499,343.945C430.104,339.73 433.51,333.659 435.165,326.854C435.935,323.435 436.264,319.851 436.217,316.205C436.111,314.39 436.053,312.544 435.751,310.718C435.559,308.869 435.125,307.058 434.745,305.215C433.876,301.519 432.496,297.835 430.596,294.378C428.7,290.917 426.288,287.678 423.469,284.789L422.757,284.048L422.004,283.353C421.5,282.892 421.005,282.424 420.496,281.975C419.436,281.129 418.422,280.229 417.312,279.474C415.161,277.859 412.858,276.528 410.553,275.284C405.886,272.902 401.037,271.165 396.191,270.104C391.343,269.042 386.521,268.574 381.869,268.621C377.217,268.668 372.74,269.273 368.559,270.278C364.377,271.289 360.492,272.728 357.001,274.475C355.224,275.314 353.666,276.332 352.085,277.238C351.303,277.7 350.531,278.155 349.773,278.603C349.007,279.039 348.315,279.564 347.601,280.028C346.192,280.982 344.828,281.905 343.516,282.794C342.252,283.749 341.036,284.667 339.87,285.548C337.513,287.271 335.514,289.043 333.669,290.564C333.186,290.916 332.688,291.278 332.177,291.65C331.68,292.039 331.169,292.438 330.646,292.848C329.602,293.671 328.506,294.535 327.362,295.438C326.203,296.326 325.064,297.328 323.85,298.337C322.648,299.359 321.375,300.396 320.106,301.518C314.994,305.967 309.365,311.187 303.284,316.938C297.201,322.687 290.676,328.976 283.544,335.313C281.764,336.9 279.917,338.452 278.075,340.058C276.211,341.634 274.276,343.159 272.351,344.744C270.384,346.269 268.364,347.763 266.344,349.296C264.287,350.748 262.19,352.19 260.002,353.544C253.598,357.574 246.988,360.978 240.459,363.934C233.916,366.864 227.443,369.354 221.158,371.365C214.876,373.382 208.802,374.989 203.048,376.173C197.294,377.354 191.867,378.137 186.887,378.585C176.918,379.512 168.766,378.997 163.201,378.241C161.802,378.085 160.575,377.849 159.507,377.667C158.973,377.573 158.48,377.486 158.029,377.407C157.581,377.31 157.176,377.221 156.815,377.141C155.363,376.825 154.6,376.659 154.6,376.659Z" style="fill:url(#_Linear3);"/>
            <path d="M194.375,322.349C196.057,322.775 197.086,325.243 197.177,328.972C197.273,332.688 196.376,337.687 194.131,342.84C193.557,344.122 192.735,345.774 191.617,347.636C190.516,349.5 189.135,351.578 187.475,353.689C185.821,355.802 183.892,357.95 181.735,359.935C179.58,361.921 177.194,363.735 174.724,365.215C169.78,368.214 164.569,369.702 160.796,370.067C157.006,370.464 154.646,370.059 154.6,369.701C154.541,369.32 156.767,368.544 159.879,366.958C163.004,365.4 166.878,362.806 170.156,359.339C173.471,355.898 176.184,351.633 178.189,347.646C179.202,345.659 180.05,343.741 180.763,342.043C181.489,340.354 182.068,338.873 182.565,337.767C184.503,333.317 186.582,329.292 188.616,326.43C190.651,323.576 192.677,321.916 194.375,322.349Z" style="fill:url(#_Linear4);"/>
            <path d="M257.478,383.491C258.084,385.508 257.799,387.584 256.78,389.33C255.76,391.04 254.006,392.34 251.842,392.888C249.681,393.38 247.544,392.933 245.883,391.879C244.22,390.811 243.027,389.062 242.645,386.999C242.26,384.921 242.757,382.921 243.797,381.298C244.834,379.661 246.439,378.476 248.383,378.033C250.301,377.543 252.256,377.956 253.899,378.938C255.521,379.89 256.871,381.475 257.478,383.491Z" style="fill:url(#_Linear5);"/>
            <path d="M272.878,377.424C273.673,378.99 273.745,380.736 273.161,382.318C272.878,383.123 272.405,383.83 271.789,384.444C271.175,385.061 270.419,385.58 269.552,385.953C267.825,386.741 265.954,386.604 264.435,385.937C262.907,385.263 261.716,384.001 261.155,382.336C260.592,380.672 260.742,378.928 261.381,377.474C262.021,376.011 263.182,374.893 264.651,374.211C265.397,373.889 266.178,373.747 266.962,373.761C267.746,373.776 268.536,373.951 269.268,374.208C270.74,374.754 272.083,375.857 272.878,377.424Z" style="fill:url(#_Linear6);"/>
            <path d="M285.255,369.919C286.122,371.136 286.407,372.594 286.135,373.989C285.883,375.405 284.983,376.646 283.664,377.511C282.997,377.932 282.295,378.224 281.567,378.336C280.833,378.441 280.101,378.404 279.413,378.234C278.035,377.895 276.844,377.018 276.118,375.711C275.393,374.404 275.252,372.925 275.574,371.611C275.737,370.954 276.016,370.338 276.406,369.799C276.793,369.254 277.27,368.745 277.866,368.368C279.046,367.592 280.481,367.453 281.792,367.686C283.115,367.945 284.388,368.701 285.255,369.919Z" style="fill:url(#_Linear7);"/>
            <path d="M294.529,362.599C296.044,364.315 295.802,366.951 293.986,368.482C292.128,369.975 289.47,369.66 288.101,367.834C286.723,365.997 287.024,363.438 288.737,362.064C290.42,360.642 293.014,360.883 294.529,362.599Z" style="fill:url(#_Linear8);"/>
            <path d="M301.883,355.741C303.126,356.986 303.085,359.009 301.79,360.257C300.51,361.518 298.448,361.43 297.266,360.131C296.079,358.827 296.163,356.858 297.39,355.649C298.628,354.455 300.641,354.496 301.883,355.741Z" style="fill:url(#_Linear9);"/>
            <path d="M226.212,389.514C226.657,393.006 229.892,395.448 233.424,394.946C236.976,394.422 239.395,391.143 238.804,387.686C238.211,384.216 235.006,381.851 231.606,382.353C228.182,382.839 225.769,386.035 226.212,389.514Z" style="fill:url(#_Linear10);"/>
            <path d="M211.797,390.965C211.885,392.457 212.576,393.771 213.653,394.688C214.722,395.591 216.165,396.07 217.704,395.942C219.23,395.783 220.552,395.041 221.43,393.958C222.307,392.867 222.751,391.452 222.574,389.968C222.398,388.483 221.639,387.211 220.571,386.352C219.501,385.484 218.131,385.013 216.683,385.165C215.243,385.283 213.99,386.005 213.107,387.052C212.227,388.086 211.708,389.473 211.797,390.965Z" style="fill:url(#_Linear11);"/>
            <path d="M199.984,391.087C199.928,392.23 200.347,393.283 201.096,394.062C201.842,394.843 202.918,395.351 204.108,395.336C206.508,395.361 208.361,393.413 208.273,391.13C208.185,388.837 206.328,387.07 204.148,387.045C203.047,387.06 202.052,387.482 201.299,388.202C200.548,388.925 200.04,389.943 199.984,391.087Z" style="fill:url(#_Linear12);"/>
            <path d="M190.125,389.521C189.716,390.299 189.699,391.168 190.156,391.993C190.6,392.785 191.497,393.436 192.527,393.634C193.556,393.833 194.496,393.581 195.159,393.063C195.834,392.557 196.238,391.769 196.304,390.896C196.419,389.134 195.129,387.651 193.762,387.383C193.064,387.246 192.434,387.421 191.804,387.8C191.205,388.162 190.535,388.744 190.125,389.521Z" style="fill:url(#_Linear13);"/>
            <path d="M267.296,244.069C266.706,244.632 265.993,244.875 265.265,244.942C264.905,244.971 264.554,244.938 264.231,244.84C263.909,244.738 263.614,244.574 263.325,244.37C262.767,243.947 262.478,243.274 262.348,242.594C262.238,241.896 262.357,241.106 262.781,240.423C263.204,239.74 263.87,239.304 264.645,239.178C265.429,239.027 266.263,239.287 266.982,239.839C267.346,240.105 267.615,240.46 267.801,240.837C267.99,241.21 268.101,241.602 268.129,241.985C268.197,242.745 267.87,243.523 267.296,244.069Z" style="fill:url(#_Linear14);"/>
            <path d="M271.003,249.174C270.415,249.496 269.754,249.557 269.176,249.419C268.611,249.268 268.051,248.979 267.731,248.466C267.418,247.944 267.271,247.387 267.376,246.782C267.473,246.188 267.777,245.588 268.289,245.156C268.801,244.724 269.437,244.553 270.072,244.654C270.694,244.761 271.365,245.109 271.749,245.737C272.143,246.358 272.31,247.049 272.141,247.685C271.989,248.315 271.591,248.851 271.003,249.174Z" style="fill:url(#_Linear15);"/>
            <path d="M273.234,254.228C272.695,254.416 272.136,254.37 271.666,254.158C271.182,253.953 270.787,253.586 270.589,253.087C270.403,252.58 270.394,252.062 270.584,251.578C270.773,251.099 271.14,250.665 271.652,250.413C272.163,250.161 272.728,250.146 273.233,250.344C273.734,250.54 274.198,250.943 274.407,251.508C274.631,252.068 274.617,252.661 274.409,253.15C274.186,253.646 273.771,254.039 273.234,254.228Z" style="fill:url(#_Linear16);"/>
            <path d="M274.521,258.55C273.668,258.762 272.833,258.257 272.588,257.452C272.356,256.642 272.843,255.769 273.664,255.503C274.507,255.232 275.384,255.721 275.634,256.591C275.897,257.459 275.365,258.34 274.521,258.55Z" style="fill:url(#_Linear17);"/>
            <path d="M275.365,262.294C274.705,262.423 274.06,262.004 273.923,261.358C273.784,260.714 274.208,260.066 274.857,259.916C275.517,259.763 276.158,260.183 276.301,260.851C276.444,261.52 276.024,262.166 275.365,262.294Z" style="fill:url(#_Linear18);"/>
            <path d="M257.062,237.705C256.836,238.336 256.881,238.999 257.117,239.552C257.363,240.093 257.772,240.567 258.331,240.823C259.463,241.285 260.821,240.854 261.493,239.675C262.152,238.525 261.653,236.944 260.301,236.384C259.64,236.083 258.935,236.076 258.342,236.344C257.752,236.597 257.286,237.073 257.062,237.705Z" style="fill:url(#_Linear19);"/>
            <path d="M251.738,236.221C251.486,237.334 252.165,238.437 253.241,238.707C254.319,238.977 255.402,238.332 255.74,237.244C256.079,236.152 255.389,234.984 254.252,234.7C253.115,234.414 251.99,235.108 251.738,236.221Z" style="fill:url(#_Linear20);"/>
            <path d="M247.317,235.324C247.178,236.187 247.734,236.996 248.569,237.161C249.405,237.325 250.237,236.782 250.423,235.929C250.61,235.075 250.057,234.229 249.178,234.056C248.297,233.882 247.454,234.461 247.317,235.324Z" style="fill:url(#_Linear21);"/>
            <path d="M245.058,235.775C245.227,235.484 245.249,235.15 245.237,234.877C245.238,234.811 245.231,234.746 245.243,234.699C245.246,234.688 245.244,234.673 245.252,234.665L245.264,234.655L245.174,234.753C245.008,234.909 244.926,235.015 244.78,235.107C244.726,235.149 244.688,235.18 244.629,235.202C244.576,235.224 244.565,235.235 244.524,235.232C244.501,235.236 244.529,235.222 244.597,235.323C244.655,235.415 244.707,235.562 244.765,235.772C244.79,235.898 244.813,236.008 244.833,236.11C244.843,236.17 244.853,236.227 244.862,236.282L244.86,236.282C244.964,236.269 245.292,236.146 245.496,235.945C245.717,235.744 245.887,235.458 245.924,235.124C245.961,234.791 245.861,234.472 245.642,234.232C245.409,233.999 245.127,233.816 244.563,233.868C244.468,233.884 244.41,233.89 244.283,233.928C244.223,233.947 244.187,233.956 244.092,233.997C243.997,234.043 243.964,234.05 243.818,234.151C243.756,234.194 243.698,234.242 243.646,234.293C243.59,234.344 243.494,234.46 243.439,234.556C243.318,234.739 243.243,235.029 243.258,235.282C243.269,235.451 243.34,235.674 243.394,235.763C243.441,235.847 243.504,235.939 243.556,235.997C243.735,236.18 243.867,236.233 243.975,236.267C244.087,236.302 244.181,236.305 244.272,236.301C244.626,236.271 244.891,236.064 245.058,235.775Z" style="fill:url(#_Linear22);"/>
        </g>
    </g>
    <defs>
        <linearGradient id="_Linear1" x1="0" y1="0" x2="1" y2="0" gradientUnits="userSpaceOnUse" gradientTransform="matrix(308.251,0,0,308.251,154.599,310.906)"><stop offset="0" style="stop-color:rgb(154,121,94);stop-opacity:1"/><stop offset="0.1" style="stop-color:rgb(204,173,138);stop-opacity:1"/><stop offset="0.3" style="stop-color:rgb(229,209,175);stop-opacity:1"/><stop offset="0.5" style="stop-color:rgb(237,221,187);stop-opacity:1"/><stop offset="0.7" style="stop-color:rgb(225,204,169);stop-opacity:1"/><stop offset="0.9" style="stop-color:rgb(188,155,122);stop-opacity:1"/><stop offset="1" style="stop-color:rgb(154,121,94);stop-opacity:1"/></linearGradient>
        <linearGradient id="_Linear2" x1="0" y1="0" x2="1" y2="0" gradientUnits="userSpaceOnUse" gradientTransform="matrix(117.52,0,0,117.52,154.599,308.887)"><stop offset="0" style="stop-color:rgb(154,121,94);stop-opacity:1"/><stop offset="0.1" style="stop-color:rgb(204,173,138);stop-opacity:1"/><stop offset="0.3" style="stop-color:rgb(229,209,175);stop-opacity:1"/><stop offset="0.5" style="stop-color:rgb(237,221,187);stop-opacity:1"/><stop offset="0.7" style="stop-color:rgb(225,204,169);stop-opacity:1"/><stop offset="0.9" style="stop-color:rgb(188,155,122);stop-opacity:1"/><stop offset="1" style="stop-color:rgb(154,121,94);stop-opacity:1"/></linearGradient>
        <linearGradient id="_Linear3" x1="0" y1="0" x2="1" y2="0" gradientUnits="userSpaceOnUse" gradientTransform="matrix(281.622,0,0,281.622,154.599,324.744)"><stop offset="0" style="stop-color:rgb(154,121,94);stop-opacity:1"/><stop offset="0.1" style="stop-color:rgb(204,173,138);stop-opacity:1"/><stop offset="0.3" style="stop-color:rgb(229,209,175);stop-opacity:1"/><stop offset="0.5" style="stop-color:rgb(237,221,187);stop-opacity:1"/><stop offset="0.7" style="stop-color:rgb(225,204,169);stop-opacity:1"/><stop offset="0.9" style="stop-color:rgb(188,155,122);stop-opacity:1"/><stop offset="1" style="stop-color:rgb(154,121,94);stop-opacity:1"/></linearGradient>
        <linearGradient id="_Linear4" x1="0" y1="0" x2="1" y2="0" gradientUnits="userSpaceOnUse" gradientTransform="matrix(42.5856,0,0,42.5856,154.598,346.256)"><stop offset="0" style="stop-color:rgb(154,121,94);stop-opacity:1"/><stop offset="0.1" style="stop-color:rgb(204,173,138);stop-opacity:1"/><stop offset="0.3" style="stop-color:rgb(229,209,175);stop-opacity:1"/><stop offset="0.5" style="stop-color:rgb(237,221,187);stop-opacity:1"/><stop offset="0.7" style="stop-color:rgb(225,204,169);stop-opacity:1"/><stop offset="0.9" style="stop-color:rgb(188,155,122);stop-opacity:1"/><stop offset="1" style="stop-color:rgb(154,121,94);stop-opacity:1"/></linearGradient>
        <linearGradient id="_Linear5" x1="0" y1="0" x2="1" y2="0" gradientUnits="userSpaceOnUse" gradientTransform="matrix(15.279,0,0,15.279,242.515,385.457)"><stop offset="0" style="stop-color:rgb(154,121,94);stop-opacity:1"/><stop offset="0.1" style="stop-color:rgb(204,173,138);stop-opacity:1"/><stop offset="0.3" style="stop-color:rgb(229,209,175);stop-opacity:1"/><stop offset="0.5" style="stop-color:rgb(237,221,187);stop-opacity:1"/><stop offset="0.7" style="stop-color:rgb(225,204,169);stop-opacity:1"/><stop offset="0.9" style="stop-color:rgb(188,155,122);stop-opacity:1"/><stop offset="1" style="stop-color:rgb(154,121,94);stop-opacity:1"/></linearGradient>
        <linearGradient id="_Linear6" x1="0" y1="0" x2="1" y2="0" gradientUnits="userSpaceOnUse" gradientTransform="matrix(12.7388,0,0,12.7388,260.806,380.126)"><stop offset="0" style="stop-color:rgb(154,121,94);stop-opacity:1"/><stop offset="0.1" style="stop-color:rgb(204,173,138);stop-opacity:1"/><stop offset="0.3" style="stop-color:rgb(229,209,175);stop-opacity:1"/><stop offset="0.5" style="stop-color:rgb(237,221,187);stop-opacity:1"/><stop offset="0.7" style="stop-color:rgb(225,204,169);stop-opacity:1"/><stop offset="0.9" style="stop-color:rgb(188,155,122);stop-opacity:1"/><stop offset="1" style="stop-color:rgb(154,121,94);stop-opacity:1"/></linearGradient>
        <linearGradient id="_Linear7" x1="0" y1="0" x2="1" y2="0" gradientUnits="userSpaceOnUse" gradientTransform="matrix(10.8235,0,0,10.8235,275.411,372.989)"><stop offset="0" style="stop-color:rgb(154,121,94);stop-opacity:1"/><stop offset="0.1" style="stop-color:rgb(204,173,138);stop-opacity:1"/><stop offset="0.3" style="stop-color:rgb(229,209,175);stop-opacity:1"/><stop offset="0.5" style="stop-color:rgb(237,221,187);stop-opacity:1"/><stop offset="0.7" style="stop-color:rgb(225,204,169);stop-opacity:1"/><stop offset="0.9" style="stop-color:rgb(188,155,122);stop-opacity:1"/><stop offset="1" style="stop-color:rgb(154,121,94);stop-opacity:1"/></linearGradient>
        <linearGradient id="_Linear8" x1="0" y1="0" x2="1" y2="0" gradientUnits="userSpaceOnUse" gradientTransform="matrix(8.2904,0,0,8.2904,287.233,365.283)"><stop offset="0" style="stop-color:rgb(154,121,94);stop-opacity:1"/><stop offset="0.1" style="stop-color:rgb(204,173,138);stop-opacity:1"/><stop offset="0.3" style="stop-color:rgb(229,209,175);stop-opacity:1"/><stop offset="0.5" style="stop-color:rgb(237,221,187);stop-opacity:1"/><stop offset="0.7" style="stop-color:rgb(225,204,169);stop-opacity:1"/><stop offset="0.9" style="stop-color:rgb(188,155,122);stop-opacity:1"/><stop offset="1" style="stop-color:rgb(154,121,94);stop-opacity:1"/></linearGradient>
        <linearGradient id="_Linear9" x1="0" y1="0" x2="1" y2="0" gradientUnits="userSpaceOnUse" gradientTransform="matrix(6.36827,0,0,6.36827,296.421,357.968)"><stop offset="0" style="stop-color:rgb(154,121,94);stop-opacity:1"/><stop offset="0.1" style="stop-color:rgb(204,173,138);stop-opacity:1"/><stop offset="0.3" style="stop-color:rgb(229,209,175);stop-opacity:1"/><stop offset="0.5" style="stop-color:rgb(237,221,187);stop-opacity:1"/><stop offset="0.7" style="stop-color:rgb(225,204,169);stop-opacity:1"/><stop offset="0.9" style="stop-color:rgb(188,155,122);stop-opacity:1"/><stop offset="1" style="stop-color:rgb(154,121,94);stop-opacity:1"/></linearGradient>
        <linearGradient id="_Linear10" x1="0" y1="0" x2="1" y2="0" gradientUnits="userSpaceOnUse" gradientTransform="matrix(12.7327,0,0,12.7327,226.159,388.648)"><stop offset="0" style="stop-color:rgb(154,121,94);stop-opacity:1"/><stop offset="0.1" style="stop-color:rgb(204,173,138);stop-opacity:1"/><stop offset="0.3" style="stop-color:rgb(229,209,175);stop-opacity:1"/><stop offset="0.5" style="stop-color:rgb(237,221,187);stop-opacity:1"/><stop offset="0.7" style="stop-color:rgb(225,204,169);stop-opacity:1"/><stop offset="0.9" style="stop-color:rgb(188,155,122);stop-opacity:1"/><stop offset="1" style="stop-color:rgb(154,121,94);stop-opacity:1"/></linearGradient>
        <linearGradient id="_Linear11" x1="0" y1="0" x2="1" y2="0" gradientUnits="userSpaceOnUse" gradientTransform="matrix(10.8257,0,0,10.8257,211.787,390.55)"><stop offset="0" style="stop-color:rgb(154,121,94);stop-opacity:1"/><stop offset="0.1" style="stop-color:rgb(204,173,138);stop-opacity:1"/><stop offset="0.3" style="stop-color:rgb(229,209,175);stop-opacity:1"/><stop offset="0.5" style="stop-color:rgb(237,221,187);stop-opacity:1"/><stop offset="0.7" style="stop-color:rgb(225,204,169);stop-opacity:1"/><stop offset="0.9" style="stop-color:rgb(188,155,122);stop-opacity:1"/><stop offset="1" style="stop-color:rgb(154,121,94);stop-opacity:1"/></linearGradient>
        <linearGradient id="_Linear12" x1="0" y1="0" x2="1" y2="0" gradientUnits="userSpaceOnUse" gradientTransform="matrix(8.29652,0,0,8.29652,199.979,391.19)"><stop offset="0" style="stop-color:rgb(154,121,94);stop-opacity:1"/><stop offset="0.1" style="stop-color:rgb(204,173,138);stop-opacity:1"/><stop offset="0.3" style="stop-color:rgb(229,209,175);stop-opacity:1"/><stop offset="0.5" style="stop-color:rgb(237,221,187);stop-opacity:1"/><stop offset="0.7" style="stop-color:rgb(225,204,169);stop-opacity:1"/><stop offset="0.9" style="stop-color:rgb(188,155,122);stop-opacity:1"/><stop offset="1" style="stop-color:rgb(154,121,94);stop-opacity:1"/></linearGradient>
        <linearGradient id="_Linear13" x1="0" y1="0" x2="1" y2="0" gradientUnits="userSpaceOnUse" gradientTransform="matrix(6.49467,0,0,6.49467,189.816,390.52)"><stop offset="0" style="stop-color:rgb(154,121,94);stop-opacity:1"/><stop offset="0.1" style="stop-color:rgb(204,173,138);stop-opacity:1"/><stop offset="0.3" style="stop-color:rgb(229,209,175);stop-opacity:1"/><stop offset="0.5" style="stop-color:rgb(237,221,187);stop-opacity:1"/><stop offset="0.7" style="stop-color:rgb(225,204,169);stop-opacity:1"/><stop offset="0.9" style="stop-color:rgb(188,155,122);stop-opacity:1"/><stop offset="1" style="stop-color:rgb(154,121,94);stop-opacity:1"/></linearGradient>
        <linearGradient id="_Linear14" x1="0" y1="0" x2="1" y2="0" gradientUnits="userSpaceOnUse" gradientTransform="matrix(5.82893,0,0,5.82893,262.309,242.044)"><stop offset="0" style="stop-color:rgb(154,121,94);stop-opacity:1"/><stop offset="0.1" style="stop-color:rgb(204,173,138);stop-opacity:1"/><stop offset="0.3" style="stop-color:rgb(229,209,175);stop-opacity:1"/><stop offset="0.5" style="stop-color:rgb(237,221,187);stop-opacity:1"/><stop offset="0.7" style="stop-color:rgb(225,204,169);stop-opacity:1"/><stop offset="0.9" style="stop-color:rgb(188,155,122);stop-opacity:1"/><stop offset="1" style="stop-color:rgb(154,121,94);stop-opacity:1"/></linearGradient>
        <linearGradient id="_Linear15" x1="0" y1="0" x2="1" y2="0" gradientUnits="userSpaceOnUse" gradientTransform="matrix(4.86438,0,0,4.86438,267.342,247.057)"><stop offset="0" style="stop-color:rgb(154,121,94);stop-opacity:1"/><stop offset="0.1" style="stop-color:rgb(204,173,138);stop-opacity:1"/><stop offset="0.3" style="stop-color:rgb(229,209,175);stop-opacity:1"/><stop offset="0.5" style="stop-color:rgb(237,221,187);stop-opacity:1"/><stop offset="0.7" style="stop-color:rgb(225,204,169);stop-opacity:1"/><stop offset="0.9" style="stop-color:rgb(188,155,122);stop-opacity:1"/><stop offset="1" style="stop-color:rgb(154,121,94);stop-opacity:1"/></linearGradient>
        <linearGradient id="_Linear16" x1="0" y1="0" x2="1" y2="0" gradientUnits="userSpaceOnUse" gradientTransform="matrix(4.12497,0,0,4.12497,270.445,252.277)"><stop offset="0" style="stop-color:rgb(154,121,94);stop-opacity:1"/><stop offset="0.1" style="stop-color:rgb(204,173,138);stop-opacity:1"/><stop offset="0.3" style="stop-color:rgb(229,209,175);stop-opacity:1"/><stop offset="0.5" style="stop-color:rgb(237,221,187);stop-opacity:1"/><stop offset="0.7" style="stop-color:rgb(225,204,169);stop-opacity:1"/><stop offset="0.9" style="stop-color:rgb(188,155,122);stop-opacity:1"/><stop offset="1" style="stop-color:rgb(154,121,94);stop-opacity:1"/></linearGradient>
        <linearGradient id="_Linear17" x1="0" y1="0" x2="1" y2="0" gradientUnits="userSpaceOnUse" gradientTransform="matrix(3.17118,0,0,3.17118,272.53,257.014)"><stop offset="0" style="stop-color:rgb(154,121,94);stop-opacity:1"/><stop offset="0.1" style="stop-color:rgb(204,173,138);stop-opacity:1"/><stop offset="0.3" style="stop-color:rgb(229,209,175);stop-opacity:1"/><stop offset="0.5" style="stop-color:rgb(237,221,187);stop-opacity:1"/><stop offset="0.7" style="stop-color:rgb(225,204,169);stop-opacity:1"/><stop offset="0.9" style="stop-color:rgb(188,155,122);stop-opacity:1"/><stop offset="1" style="stop-color:rgb(154,121,94);stop-opacity:1"/></linearGradient>
        <linearGradient id="_Linear18" x1="0" y1="0" x2="1" y2="0" gradientUnits="userSpaceOnUse" gradientTransform="matrix(2.43233,0,0,2.43233,273.897,261.101)"><stop offset="0" style="stop-color:rgb(154,121,94);stop-opacity:1"/><stop offset="0.1" style="stop-color:rgb(204,173,138);stop-opacity:1"/><stop offset="0.3" style="stop-color:rgb(229,209,175);stop-opacity:1"/><stop offset="0.5" style="stop-color:rgb(237,221,187);stop-opacity:1"/><stop offset="0.7" style="stop-color:rgb(225,204,169);stop-opacity:1"/><stop offset="0.9" style="stop-color:rgb(188,155,122);stop-opacity:1"/><stop offset="1" style="stop-color:rgb(154,121,94);stop-opacity:1"/></linearGradient>
        <linearGradient id="_Linear19" x1="0" y1="0" x2="1" y2="0" gradientUnits="userSpaceOnUse" gradientTransform="matrix(4.86732,0,0,4.86732,256.914,238.578)"><stop offset="0" style="stop-color:rgb(154,121,94);stop-opacity:1"/><stop offset="0.1" style="stop-color:rgb(204,173,138);stop-opacity:1"/><stop offset="0.3" style="stop-color:rgb(229,209,175);stop-opacity:1"/><stop offset="0.5" style="stop-color:rgb(237,221,187);stop-opacity:1"/><stop offset="0.7" style="stop-color:rgb(225,204,169);stop-opacity:1"/><stop offset="0.9" style="stop-color:rgb(188,155,122);stop-opacity:1"/><stop offset="1" style="stop-color:rgb(154,121,94);stop-opacity:1"/></linearGradient>
        <linearGradient id="_Linear20" x1="0" y1="0" x2="1" y2="0" gradientUnits="userSpaceOnUse" gradientTransform="matrix(4.14248,0,0,4.14248,251.685,236.702)"><stop offset="0" style="stop-color:rgb(154,121,94);stop-opacity:1"/><stop offset="0.1" style="stop-color:rgb(204,173,138);stop-opacity:1"/><stop offset="0.3" style="stop-color:rgb(229,209,175);stop-opacity:1"/><stop offset="0.5" style="stop-color:rgb(237,221,187);stop-opacity:1"/><stop offset="0.7" style="stop-color:rgb(225,204,169);stop-opacity:1"/><stop offset="0.9" style="stop-color:rgb(188,155,122);stop-opacity:1"/><stop offset="1" style="stop-color:rgb(154,121,94);stop-opacity:1"/></linearGradient>
        <linearGradient id="_Linear21" x1="0" y1="0" x2="1" y2="0" gradientUnits="userSpaceOnUse" gradientTransform="matrix(3.16373,0,0,3.16373,247.295,235.608)"><stop offset="0" style="stop-color:rgb(154,121,94);stop-opacity:1"/><stop offset="0.1" style="stop-color:rgb(204,173,138);stop-opacity:1"/><stop offset="0.3" style="stop-color:rgb(229,209,175);stop-opacity:1"/><stop offset="0.5" style="stop-color:rgb(237,221,187);stop-opacity:1"/><stop offset="0.7" style="stop-color:rgb(225,204,169);stop-opacity:1"/><stop offset="0.9" style="stop-color:rgb(188,155,122);stop-opacity:1"/><stop offset="1" style="stop-color:rgb(154,121,94);stop-opacity:1"/></linearGradient>
        <linearGradient id="_Linear22" x1="0" y1="0" x2="1" y2="0" gradientUnits="userSpaceOnUse" gradientTransform="matrix(2.67523,0,0,2.67523,243.256,235.081)"><stop offset="0" style="stop-color:rgb(154,121,94);stop-opacity:1"/><stop offset="0.1" style="stop-color:rgb(204,173,138);stop-opacity:1"/><stop offset="0.3" style="stop-color:rgb(229,209,175);stop-opacity:1"/><stop offset="0.5" style="stop-color:rgb(237,221,187);stop-opacity:1"/><stop offset="0.7" style="stop-color:rgb(225,204,169);stop-opacity:1"/><stop offset="0.9" style="stop-color:rgb(188,155,122);stop-opacity:1"/><stop offset="1" style="stop-color:rgb(154,121,94);stop-opacity:1"/></linearGradient>
    </defs>
</svg>
